<svg width="44" height="40" viewBox="0 0 44 40" fill="none" xmlns="http://www.w3.org/2000/svg">
<path d="M22.889 20.3638C22.8939 19.2347 22.5626 18.1297 21.9374 17.1896C21.3109 16.2477 20.4191 15.5129 19.3749 15.078C18.3298 14.6427 17.1793 14.5262 16.0682 14.743C14.957 14.9598 13.9348 15.5003 13.13 16.2966C12.3271 17.0911 11.7792 18.1068 11.5562 19.2142C11.3332 20.3215 11.4452 21.4702 11.878 22.5135C12.311 23.5575 13.0443 24.4494 13.9849 25.076C14.9269 25.7039 16.0337 26.0391 17.1659 26.0392C17.9167 26.0467 18.6616 25.9052 19.3575 25.6231C20.0534 25.341 20.6865 24.9238 21.2201 24.3956C21.752 23.8679 22.1735 23.2397 22.46 22.5475C22.7465 21.8553 22.8923 21.1129 22.889 20.3638ZM14.3145 20.3638C14.3111 19.7975 14.4767 19.243 14.79 18.7712C15.1039 18.2987 15.551 17.9301 16.0747 17.712C16.599 17.4938 17.1762 17.4358 17.7335 17.5453C18.2907 17.6547 18.8031 17.9268 19.206 18.3271C19.6071 18.727 19.88 19.2372 19.9901 19.7929C20.1001 20.3485 20.0422 20.9242 19.8238 21.4468C19.6044 21.9696 19.2346 22.4154 18.7612 22.7274C18.2864 23.04 17.7306 23.2049 17.1618 23.2015C16.4105 23.1903 15.6929 22.8877 15.1605 22.3575C14.6296 21.8285 14.326 21.1132 14.3145 20.3638ZM22.889 6.47493C22.8941 5.3454 22.5629 4.23992 21.9374 3.29937C21.3109 2.35751 20.4191 1.62265 19.3749 1.18777C18.3297 0.752679 17.1792 0.636287 16.0681 0.85323C14.957 1.07017 13.9348 1.61077 13.13 2.40705C12.3271 3.20156 11.7792 4.21731 11.5562 5.32464C11.3332 6.43197 11.4452 7.58063 11.878 8.62399C12.3109 9.66821 13.0442 10.5603 13.9849 11.1872C14.927 11.8148 16.0338 12.1497 17.1659 12.1497C17.9167 12.1571 18.6616 12.0157 19.3575 11.7336C20.0534 11.4515 20.6865 11.0343 21.2201 10.506C21.752 9.97839 22.1734 9.35015 22.4599 8.65794C22.7465 7.96573 22.8923 7.22409 22.889 6.47493ZM14.3145 6.47493C14.3108 5.90815 14.4764 5.35316 14.79 4.88102C15.104 4.40876 15.5511 4.04035 16.0747 3.8225C16.599 3.60431 17.1762 3.54628 17.7335 3.65575C18.2907 3.76521 18.8031 4.03727 19.206 4.43758C19.6071 4.83747 19.88 5.34773 19.9901 5.90333C20.1001 6.45893 20.0422 7.03472 19.8238 7.55729C19.6044 8.0801 19.2345 8.52585 18.7612 8.83787C18.2864 9.15053 17.7306 9.31537 17.1618 9.31196C16.4105 9.30081 15.6929 8.9982 15.1605 8.468C14.6296 7.93902 14.326 7.22435 14.3145 6.47493ZM22.889 33.897C22.894 32.7678 22.5628 31.6625 21.9374 30.7222C21.3109 29.7803 20.4191 29.0454 19.3749 28.6106C18.3297 28.1754 17.1792 28.0589 16.0681 28.2759C14.9569 28.4928 13.9347 29.0335 13.13 29.8298C12.3271 30.6244 11.7792 31.6401 11.5562 32.7474C11.3332 33.8548 11.4452 35.0034 11.878 36.0468C12.3111 37.0907 13.0443 37.9826 13.9849 38.6093C14.9267 39.2371 16.0333 39.5722 17.1652 39.5725C17.9161 39.5799 18.6609 39.4385 19.3568 39.1564C20.0527 38.8743 20.6858 38.4571 21.2195 37.9288C21.7512 37.4013 22.1726 36.7731 22.4591 36.081C22.7456 35.389 22.8915 34.6468 22.8883 33.8977L22.889 33.897ZM14.3145 33.897C14.311 33.3305 14.4766 32.7758 14.79 32.3038C15.1039 31.8313 15.551 31.4626 16.0747 31.2446C16.5991 31.0265 17.1763 30.9686 17.7336 31.0782C18.2909 31.1878 18.8032 31.4599 19.206 31.8604C19.6071 32.2603 19.88 32.7705 19.9901 33.3261C20.1001 33.8817 20.0422 34.4575 19.8238 34.9801C19.6044 35.5029 19.2346 35.9487 18.7612 36.2607C18.2864 36.5733 17.7306 36.7375 17.1618 36.7348C16.4105 36.7236 15.6929 36.421 15.1605 35.8908C14.6295 35.3619 14.326 34.6465 14.3145 33.897Z" fill="#FF2345"/>
<path d="M24.532 39.2858H31.2005V36.4528H27.3792L27.3744 28.0684H24.536L24.532 39.2858ZM27.8226 12.4188H30.6658V4.02962H34.2262V1.20213H24.519V4.0303H27.8226V12.4188ZM5.83481 25.8696C6.62307 25.8541 7.40035 25.6818 8.12132 25.3628C8.8423 25.0437 9.49255 24.5844 10.0342 24.0114L10.2208 23.8255L8.23386 21.8201L8.04313 22.0109C7.46322 22.6198 6.6742 22.9866 5.83481 23.0374C5.44106 23.0751 5.04377 23.0303 4.66826 22.906C4.29274 22.7817 3.94724 22.5805 3.65374 22.3153C3.36151 22.0505 3.1279 21.7275 2.9679 21.367C2.80789 21.0065 2.72503 20.6165 2.72464 20.2221C2.72449 19.8276 2.80717 19.4374 2.96733 19.0768C3.12749 18.7163 3.36157 18.3933 3.65442 18.1289C3.94768 17.8634 4.29316 17.662 4.66874 17.5377C5.04431 17.4134 5.44171 17.3688 5.83549 17.4069C6.25284 17.4261 6.66231 17.5274 7.04043 17.705C7.41856 17.8827 7.75791 18.1332 8.03904 18.4423L8.23045 18.6419L10.2215 16.6236L10.0348 16.4329C9.49463 15.8572 8.84492 15.3953 8.12381 15.0741C7.40271 14.7529 6.62472 14.5789 5.83549 14.5624C5.07747 14.5416 4.32293 14.6724 3.61611 14.947C2.90928 15.2217 2.26439 15.6346 1.71925 16.1618C1.17609 16.6882 0.744072 17.3183 0.448763 18.0147C0.153453 18.711 0.000854379 19.4596 2.81623e-07 20.216C-0.000238837 20.9725 0.151796 21.7214 0.447047 22.4179C0.742298 23.1144 1.17473 23.7444 1.71857 24.2703C2.26317 24.7981 2.90797 25.2116 3.61492 25.4863C4.32188 25.761 5.07668 25.8913 5.83481 25.8696ZM27.3792 19.9538V25.9684H24.5354V14.6584H27.1265L31.178 20.6867V14.7443H43.8544V17.4893H40.3328L40.3287 25.8649H37.4897V17.49H34.0035V25.8649H31.443L27.3792 19.9538ZM4.49565 12.3881H1.39025V1.0332H4.2913C6.35658 1.0332 8.03904 1.37106 9.32984 3.15161C10.0375 4.18378 10.4039 5.41179 10.3775 6.66299C10.3775 10.4094 8.23862 12.3881 4.49565 12.3881ZM4.99494 3.57938H4.10058V9.84196H4.96974C6.956 9.84196 7.75568 8.56819 7.75568 6.72838C7.75568 4.8872 6.93829 3.57938 4.99494 3.57938ZM5.82119 35.7131H4.06039V39.3941H1.33507V28.065H5.68223C8.5431 28.065 10.1077 29.6024 10.1077 31.932C10.1077 33.5695 9.33393 34.6001 8.33807 35.0673L10.6336 39.3981H7.66849L5.82119 35.7131ZM5.9472 33.3658C6.81704 33.3658 7.32996 32.9026 7.32996 32.1138C7.32996 31.1309 6.82113 30.5553 5.9472 30.5553H4.06039V33.3658H5.9472Z" fill="white"/>
</svg>
